<?xml version="1.0" encoding="utf-8"?>
<!-- Generator: Adobe Illustrator 15.0.0, SVG Export Plug-In . SVG Version: 6.00 Build 0)  -->
<!DOCTYPE svg PUBLIC "-//W3C//DTD SVG 1.1//EN" "http://www.w3.org/Graphics/SVG/1.1/DTD/svg11.dtd">
<svg version="1.1" id="Layer_1" xmlns="http://www.w3.org/2000/svg" xmlns:xlink="http://www.w3.org/1999/xlink" x="0px" y="0px"
	 width="256px" height="256px" viewBox="0 0 256 256" enable-background="new 0 0 256 256" xml:space="preserve">
<path fill="#FFFFFF" d="M188.812,180.326L136.484,128l52.326-52.326c2.5-2.499,2.782-6.269,0.282-8.768
	c-2.497-2.499-6.269-2.216-8.768,0.283L128,119.515L75.674,67.189c-2.499-2.5-6.269-2.782-8.768-0.283
	c-2.499,2.499-2.216,6.269,0.283,8.768L119.515,128l-52.326,52.326c-2.499,2.499-2.782,6.27-0.283,8.768
	c2.499,2.5,6.269,2.217,8.768-0.281L128,136.484l52.326,52.326c2.499,2.5,6.27,2.782,8.77,0.282
	C191.594,186.596,191.311,182.825,188.812,180.326z"/>
</svg>
