<?xml version="1.0" encoding="utf-8"?>
<!-- Generator: Adobe Illustrator 15.0.0, SVG Export Plug-In . SVG Version: 6.00 Build 0)  -->
<!DOCTYPE svg PUBLIC "-//W3C//DTD SVG 1.1//EN" "http://www.w3.org/Graphics/SVG/1.1/DTD/svg11.dtd">
<svg version="1.1" id="Layer_1" xmlns:sketch="http://www.bohemiancoding.com/sketch/ns"
	 xmlns="http://www.w3.org/2000/svg" xmlns:xlink="http://www.w3.org/1999/xlink" x="0px" y="0px" width="24px" height="24px"
	 viewBox="0 -8 24 24" enable-background="new 0 -8 24 24" xml:space="preserve">
<title></title>
<desc></desc>
<g id="Page-1">
	<g id="Core" transform="translate(-504.000000, -88.000000)">
		<g id="cloud-download" transform="translate(504.000000, 88.000000)">
			<path id="Shape" fill="#FFFFFF" d="M19.4,2c-0.7-3.4-3.7-6-7.4-6C9.1-4,6.6-2.4,5.4,0C2.3,0.4,0,2.9,0,6c0,3.3,2.7,6,6,6h13
				c2.8,0,5-2.2,5-5C24,4.4,21.9,2.2,19.4,2L19.4,2z M17,5l-5,5L7,5h3V1h4v4H17L17,5z"/>
		</g>
	</g>
</g>
</svg>
