<?xml version="1.0" encoding="utf-8"?>
<!-- Generator: Adobe Illustrator 15.0.0, SVG Export Plug-In . SVG Version: 6.00 Build 0)  -->
<!DOCTYPE svg PUBLIC "-//W3C//DTD SVG 1.1//EN" "http://www.w3.org/Graphics/SVG/1.1/DTD/svg11.dtd">
<svg version="1.1" id="Layer_1" xmlns="http://www.w3.org/2000/svg" xmlns:xlink="http://www.w3.org/1999/xlink" x="0px" y="0px"
	 width="1024px" height="768px" viewBox="0 0 1024 768" enable-background="new 0 0 1024 768" xml:space="preserve">
<g id="info">
</g>
<g id="icons">
	<path id="favorite" fill="#FFCA00" d="M540.8,83.2l73.601,160c3.199,9.6,12.8,16,22.399,19.2L803.2,288c28.8,0,38.399,32,19.2,51.2
		L700.8,464c-6.399,6.4-9.6,19.2-9.6,28.8L720,665.6c3.2,25.601-22.4,48-44.8,35.2l-150.4-83.2c-9.6-6.399-19.2-6.399-28.8,0
		l-150.4,83.2c-22.4,12.8-51.2-6.399-44.8-35.2l28.8-172.8c3.2-9.6-3.2-22.399-9.6-28.8L198.4,339.2c-16-19.2-6.4-51.2,19.2-54.4
		L384,259.2c9.6,0,19.2-9.6,22.4-19.2L480,80C496,57.6,528,57.6,540.8,83.2z"/>
</g>
</svg>
