<?xml version="1.0" encoding="utf-8"?>
<!-- Generator: Adobe Illustrator 15.0.0, SVG Export Plug-In . SVG Version: 6.00 Build 0)  -->
<!DOCTYPE svg PUBLIC "-//W3C//DTD SVG 1.1//EN" "http://www.w3.org/Graphics/SVG/1.1/DTD/svg11.dtd">
<svg version="1.1" id="Capa_1" xmlns="http://www.w3.org/2000/svg" xmlns:xlink="http://www.w3.org/1999/xlink" x="0px" y="0px"
	 width="92px" height="92px" viewBox="0 0 92 92" enable-background="new 0 0 92 92" xml:space="preserve">
<g>
	<path fill="#FFFFFF" d="M45.576,14.305C28.072,14.54,14.073,28.921,14.305,46.427c0.234,17.497,14.615,31.5,32.119,31.268
		c17.502-0.236,31.504-14.617,31.271-32.122C77.461,28.075,63.079,14.072,45.576,14.305z M49.09,24.868
		c3.223,0,4.174,1.87,4.174,4.007c0,2.671-2.139,5.141-5.786,5.141c-3.052,0-4.504-1.536-4.419-4.072
		C43.058,27.807,44.849,24.868,49.09,24.868z M40.83,65.811c-2.202,0-3.815-1.334-2.275-7.211l2.526-10.424
		c0.439-1.67,0.513-2.337,0-2.337c-0.661,0-3.519,1.154-5.207,2.289l-1.101-1.803c5.356-4.473,11.516-7.097,14.157-7.097
		c2.201,0,2.568,2.604,1.468,6.611l-2.893,10.957c-0.513,1.938-0.293,2.604,0.219,2.604c0.662,0,2.827-0.803,4.953-2.475
		l1.248,1.672C48.715,63.805,43.03,65.811,40.83,65.811z"/>
</g>
</svg>
