<?xml version="1.0" encoding="utf-8"?>
<!-- Generator: Adobe Illustrator 15.0.0, SVG Export Plug-In . SVG Version: 6.00 Build 0)  -->
<!DOCTYPE svg PUBLIC "-//W3C//DTD SVG 1.1//EN" "http://www.w3.org/Graphics/SVG/1.1/DTD/svg11.dtd">
<svg version="1.1" id="Layer_1" xmlns="http://www.w3.org/2000/svg" xmlns:xlink="http://www.w3.org/1999/xlink" x="0px" y="0px"
	 width="48px" height="48px" viewBox="0 0 48 48" enable-background="new 0 0 48 48" xml:space="preserve">
<path fill="#FFFFFF" d="M24,16c2.21,0,4-1.79,4-4s-1.79-4-4-4s-4,1.79-4,4S21.79,16,24,16z M24,20c-2.21,0-4,1.79-4,4s1.79,4,4,4
	s4-1.79,4-4S26.21,20,24,20z M24,32c-2.21,0-4,1.79-4,4s1.79,4,4,4s4-1.79,4-4S26.21,32,24,32z"/>
</svg>
