<?xml version="1.0" encoding="utf-8"?>
<!-- Generator: Adobe Illustrator 15.0.0, SVG Export Plug-In . SVG Version: 6.00 Build 0)  -->
<!DOCTYPE svg PUBLIC "-//W3C//DTD SVG 1.1//EN" "http://www.w3.org/Graphics/SVG/1.1/DTD/svg11.dtd">
<svg version="1.1" id="Layer_1" xmlns="http://www.w3.org/2000/svg" xmlns:xlink="http://www.w3.org/1999/xlink" x="0px" y="0px"
	 width="32px" height="32px" viewBox="0 0 32 32" enable-background="new 0 0 32 32" xml:space="preserve">
<g id="_x34__audio_rewind">
	<path fill="#FFFFFF" d="M5.156,26.858c0.508,0.21,1.094,0.095,1.483-0.296l8.721-8.719v7.757c0,0.552,0.331,1.047,0.84,1.258
		c0.508,0.21,1.094,0.095,1.483-0.294l9.602-9.603c0.256-0.255,0.398-0.603,0.399-0.962c0-0.36-0.145-0.708-0.399-0.962
		l-9.601-9.602c-0.262-0.261-0.609-0.398-0.962-0.398c-0.176,0-0.352,0.032-0.521,0.104c-0.509,0.21-0.84,0.707-0.84,1.257v7.76
		L6.639,5.435c-0.26-0.26-0.606-0.397-0.96-0.397c-0.176,0-0.354,0.032-0.521,0.105C4.647,5.351,4.316,5.85,4.317,6.4v19.202
		C4.317,26.151,4.647,26.647,5.156,26.858z"/>
</g>
</svg>
