<?xml version="1.0" encoding="utf-8"?>
<!-- Generator: Adobe Illustrator 15.0.0, SVG Export Plug-In . SVG Version: 6.00 Build 0)  -->
<!DOCTYPE svg PUBLIC "-//W3C//DTD SVG 1.1//EN" "http://www.w3.org/Graphics/SVG/1.1/DTD/svg11.dtd">
<svg version="1.1" id="Layer_1" xmlns="http://www.w3.org/2000/svg" xmlns:xlink="http://www.w3.org/1999/xlink" x="0px" y="0px"
	 width="32px" height="32px" viewBox="0 0 32 32" enable-background="new 0 0 32 32" xml:space="preserve">
<g id="_x34__audio_rewind">
	<path fill="#FFFFFF" d="M26.844,5.141c-0.508-0.21-1.094-0.094-1.482,0.296l-8.721,8.719V6.399c0-0.551-0.332-1.047-0.841-1.258
		c-0.509-0.211-1.094-0.094-1.483,0.295l-9.601,9.602c-0.257,0.255-0.4,0.602-0.4,0.962c0,0.361,0.144,0.708,0.399,0.963
		l9.601,9.602c0.261,0.261,0.609,0.398,0.962,0.398c0.175,0,0.352-0.031,0.521-0.104c0.509-0.211,0.84-0.707,0.84-1.258v-7.76
		l8.723,8.723c0.26,0.26,0.606,0.397,0.961,0.397c0.176,0,0.354-0.032,0.521-0.104c0.511-0.209,0.841-0.707,0.841-1.258V6.398
		C27.684,5.848,27.354,5.352,26.844,5.141z"/>
</g>
</svg>
