<?xml version="1.0" encoding="utf-8"?>
<!-- Generator: Adobe Illustrator 15.0.0, SVG Export Plug-In . SVG Version: 6.00 Build 0)  -->
<!DOCTYPE svg PUBLIC "-//W3C//DTD SVG 1.1//EN" "http://www.w3.org/Graphics/SVG/1.1/DTD/svg11.dtd">
<svg version="1.1" id="Layer_1" xmlns="http://www.w3.org/2000/svg" xmlns:xlink="http://www.w3.org/1999/xlink" x="0px" y="0px"
	 width="32.535px" height="31.708px" viewBox="0 0 32.535 31.708" enable-background="new 0 0 32.535 31.708" xml:space="preserve">
<g>
	<path fill="#3D3D3D" d="M28.001,19.077v10.195h-9.415v-8.049c0-4.358,0.505-7.497,1.512-9.415c1.399-2.634,3.578-4.619,6.537-5.952
		l2.146,3.463c-1.756,0.715-3.065,1.846-3.927,3.391c-0.861,1.544-1.341,3.667-1.439,6.366H28.001z M12.878,19.077v10.195H3.463
		v-8.049c0-4.358,0.505-7.497,1.512-9.415c1.399-2.634,3.578-4.619,6.537-5.952l2.146,3.463c-1.756,0.715-3.065,1.846-3.927,3.391
		c-0.861,1.544-1.341,3.667-1.439,6.366H12.878z"/>
</g>
</svg>
