<?xml version="1.0" encoding="utf-8"?>
<!-- Generator: Adobe Illustrator 15.0.0, SVG Export Plug-In . SVG Version: 6.00 Build 0)  -->
<!DOCTYPE svg PUBLIC "-//W3C//DTD SVG 1.1//EN" "http://www.w3.org/Graphics/SVG/1.1/DTD/svg11.dtd">
<svg version="1.1" id="Layer_1" xmlns="http://www.w3.org/2000/svg" xmlns:xlink="http://www.w3.org/1999/xlink" x="0px" y="0px"
	 width="1024px" height="768px" viewBox="0 0 1024 768" enable-background="new 0 0 1024 768" xml:space="preserve">
<g id="info">
</g>
<g id="icons">
	<g id="save">
		<path fill="#FFFFFF" d="M537.6,172.799c-12.8-16-38.398-16-51.198,0l-192,201.602c-16,16,0,41.6,25.6,41.6H448
			c0,0-6.4,147.2,0,224c3.2,35.2,28.8,64,64,64s60.8-28.8,64-64c6.4-73.601,0-224,0-224h128c25.6,0,41.6-25.6,25.6-44.8
			L537.6,172.799z"/>
		<path fill="#FFFFFF" d="M288,95.999h448c35.2,0,64-28.8,64-64l0,0c0-19.2-12.8-32-32-32H256c-19.2,0-32,12.8-32,32l0,0
			C224,67.199,252.8,95.999,288,95.999z"/>
	</g>
</g>
</svg>
