<?xml version="1.0" encoding="utf-8"?>
<!-- Generator: Adobe Illustrator 15.0.0, SVG Export Plug-In . SVG Version: 6.00 Build 0)  -->
<!DOCTYPE svg PUBLIC "-//W3C//DTD SVG 1.1//EN" "http://www.w3.org/Graphics/SVG/1.1/DTD/svg11.dtd">
<svg version="1.1" id="Layer_1" xmlns="http://www.w3.org/2000/svg" xmlns:xlink="http://www.w3.org/1999/xlink" x="0px" y="0px"
	 width="1024px" height="768px" viewBox="0 0 1024 768" enable-background="new 0 0 1024 768" xml:space="preserve">
<g id="info">
</g>
<g id="icons">
	<g id="save">
		<path fill="#FFFFFF" d="M486.4,531.2c12.8,16,38.399,16,51.199,0l192-201.601c16-16,0-41.6-25.6-41.6H576c0,0,6.4-147.2,0-224
			c-3.2-35.2-28.8-64-64-64s-60.8,28.8-64,64c-6.4,73.6,0,224,0,224H320c-25.6,0-41.6,25.6-25.6,44.8L486.4,531.2z"/>
		<path fill="#FFFFFF" d="M736,608H288c-35.2,0-64,28.8-64,64l0,0c0,19.2,12.8,32,32,32h512c19.2,0,32-12.8,32-32l0,0
			C800,636.8,771.2,608,736,608z"/>
	</g>
</g>
</svg>
