<?xml version="1.0" encoding="utf-8"?>
<!-- Generator: Adobe Illustrator 15.0.0, SVG Export Plug-In . SVG Version: 6.00 Build 0)  -->
<!DOCTYPE svg PUBLIC "-//W3C//DTD SVG 1.1//EN" "http://www.w3.org/Graphics/SVG/1.1/DTD/svg11.dtd">
<svg version="1.1" id="Layer_21" xmlns="http://www.w3.org/2000/svg" xmlns:xlink="http://www.w3.org/1999/xlink" x="0px" y="0px"
	 width="24px" height="24px" viewBox="0 0 24 24" enable-background="new 0 0 24 24" xml:space="preserve">
<title></title>
<path fill="#FF1717" d="M21.807,7.805c-0.121-1.353-1.195-2.423-2.549-2.539C17.689,5.136,15.367,5,12.5,5
	C9.048,5,6.441,5.141,4.757,5.273c-1.36,0.109-2.443,1.183-2.564,2.542C2.089,8.9,2,10.333,2,12.042
	c0,1.667,0.089,3.075,0.191,4.146c0.122,1.357,1.205,2.43,2.563,2.539C6.44,18.859,9.046,19,12.5,19
	c2.867,0,5.189-0.136,6.758-0.266c1.354-0.116,2.428-1.188,2.549-2.539C21.91,15.115,22,13.691,22,12
	C22,10.308,21.91,8.885,21.807,7.805z M9.776,14.939V9.061L15.574,12L9.776,14.939z"/>
</svg>
