<?xml version="1.0" encoding="utf-8"?>
<!-- Generator: Adobe Illustrator 15.0.0, SVG Export Plug-In . SVG Version: 6.00 Build 0)  -->
<!DOCTYPE svg PUBLIC "-//W3C//DTD SVG 1.1//EN" "http://www.w3.org/Graphics/SVG/1.1/DTD/svg11.dtd">
<svg version="1.1" id="Layer_1" xmlns="http://www.w3.org/2000/svg" xmlns:xlink="http://www.w3.org/1999/xlink" x="0px" y="0px"
	 width="128px" height="128px" viewBox="0 0 128 128" enable-background="new 0 0 128 128" xml:space="preserve">
<g>
	<rect fill="#E62117" width="128.001" height="128.001"/>
	<path fill="#FFFFFF" d="M68.871,67.53h-0.588c-1.461,0-2.646,1.181-2.646,2.638v5.928c0,1.458,1.186,2.638,2.646,2.638h0.588
		c1.461,0,2.646-1.18,2.646-2.638v-5.928C71.517,68.711,70.332,67.53,68.871,67.53z"/>
	<path fill="#FFFFFF" d="M77.875,60.84H77.27c-1.461,0-2.646,1.18-2.646,2.637v0.418v11.784v0.418c0,1.458,1.185,2.638,2.646,2.638
		h0.605c1.462,0,2.646-1.18,2.646-2.638v-0.418V63.895v-0.418C80.521,62.021,79.337,60.84,77.875,60.84z"/>
	<path fill="#FFFFFF" d="M50.219,54.147h-0.606c-1.46,0-2.645,1.181-2.645,2.637v0.844v17.626v0.843
		c0,1.458,1.185,2.638,2.645,2.638h0.606c1.461,0,2.646-1.18,2.646-2.638v-0.843V57.628v-0.844
		C52.865,55.329,51.681,54.147,50.219,54.147z"/>
	<path fill="#FFFFFF" d="M59.717,47.456h-0.605c-1.46,0-2.646,1.181-2.646,2.638v7.535v10.934v7.535
		c0,1.458,1.185,2.638,2.646,2.638h0.605c1.462,0,2.646-1.18,2.646-2.638v-7.535V57.628v-7.535
		C62.363,48.637,61.179,47.456,59.717,47.456z"/>
</g>
</svg>
